# xmcd
#
# Track frame offsets:
#	150
#	11349
#	21358
#	35765
#	50905
#	61447
#	73576
#	87603
#	101690
#	111917
#	126412
#	139305
#	151544
#	164851
#	178110
#	192331
#	207028
#	219495
#	233944
#	247309
#	259826
#	274245
#	284900
#	294890
#
# Disc length: 4147 seconds
#
# Revision: 0
# Processed by: cddbd v1.5.2PL0 Copyright (c) Steve Scherf et al.
# Submitted via: audiograbber 1.83.01
#
DISCID=87103118
DTITLE=Various Artist - Bluegrass From Roots To Branches - CD1
DYEAR=1900
DGENRE=Bluegrass
TTITLE0=The Monroe Brothers - My Long Journey Home
TTITLE1=The Monroe Brothers - Lonesome Valley
TTITLE2=Eck Robertson - Sally Gooden
TTITLE3=Appalachian Vagabond - The Peddlar And His Wife
TTITLE4=Arthur Smith - I'm Bound To Ride
TTITLE5=Grayson and Whittier - Handsome Molly
TTITLE6=The Skillet Lickers - Ride Old Buck To Water
TTITLE7=Uncle Dave Macon - I'm Going Away In The Morn
TTITLE8=Arthur Smith - In The Pines
TTITLE9=Charlie Monroe's Boys - Once I Had A Darling Mother
TTITLE10=Charlie Poole - Don't Let Your Deal Go Down
TTITLE11=The Skillet Lickers - Soldier's Joy
TTITLE12=JP Nestor and Norman Edmonds - Black-Eyed Susie
TTITLE13=Uncle Dave Macon - Sail Away Ladies
TTITLE14=Dykes Magic City Trio - Hook And Line
TTITLE15=Charlie Poole - Take A Drink On Me
TTITLE16=Blue Ridge Mountain Entertainers - Baby All Night Long
TTITLE17=Uncle Dave Macon - Buddy Won't You Roll Down The Line
TTITLE18=The Skillet Lickers - Rock That Cradle Lucy
TTITLE19=Blue Ridge Mountain Entertainers - Short Life Of Trouble
TTITLE20=Grayson and Whittier - A Dark Road Is A Hard Road To Travel
TTITLE21=Charlie Monroe and His Kentucky Pardners - You'd Better Be Somewhere Pra
TTITLE21=ying
TTITLE22=The Monroe Brothers - Nine Pound Hammer Is Too Heavy
TTITLE23=The Monroe Brothers - New River Train
EXTD=
EXTT0=
EXTT1=
EXTT2=
EXTT3=
EXTT4=
EXTT5=
EXTT6=
EXTT7=
EXTT8=
EXTT9=
EXTT10=
EXTT11=
EXTT12=
EXTT13=
EXTT14=
EXTT15=
EXTT16=
EXTT17=
EXTT18=
EXTT19=
EXTT20=
EXTT21=
EXTT22=
EXTT23=
PLAYORDER=
